<?xml version="1.0" encoding="utf-8"?>
<!-- Generator: Adobe Illustrator 25.4.1, SVG Export Plug-In . SVG Version: 6.00 Build 0)  -->
<svg version="1.1" id="Calque_1" xmlns="http://www.w3.org/2000/svg" xmlns:xlink="http://www.w3.org/1999/xlink" x="0px" y="0px"
	 viewBox="0 0 50 50" style="enable-background:new 0 0 50 50;" xml:space="preserve">
<style type="text/css">
	.st0{fill:none;stroke:#2394DB;stroke-miterlimit:10;}
</style>
<path class="st0" d="M25.8,11.6C36.5,12.6,42.6,21.9,42,30c-0.8,9.8-8.8,16.3-17.5,16.2c-8.9-0.1-16.2-7.1-16.9-15.8
	C6.8,21.6,13,12.7,23.8,11.6c-2-0.9-3.3-2.2-3.1-4.3c0.1-1,0.7-2.2,1.4-2.9c1.6-1.6,4.4-1.3,5.8,0.5C29.6,7.1,28.9,9.5,25.8,11.6z
	 M24.7,44.6c8.4,0,15.6-6.8,15.7-15.7c0.1-9.2-7.7-15.8-15.6-15.8C16.1,13.2,9,20.2,9,29C9,37.6,16.1,44.6,24.7,44.6z M25.9,9.6
	c1-0.5,1.6-1.5,1.3-2.7C26.9,5.8,25.8,5,24.7,5c-1.2,0-2.2,0.9-2.5,2.1c-0.2,1.1,0.3,2.1,1.3,2.5c0.4-0.4,0.8-0.8,1.2-1.2
	C25.1,8.8,25.5,9.1,25.9,9.6z"/>
<path class="st0" d="M24.7,44.6C16.1,44.6,9,37.6,9,29c0-8.7,7.1-15.8,15.8-15.8c7.9,0,15.7,6.5,15.6,15.8
	C40.3,37.9,33.2,44.6,24.7,44.6z M37.7,29c0-7.9-6.1-13.2-13-13.2c-7.3,0-13.2,5.8-13.2,13.2c0,7.2,5.9,13.2,13.1,13.1
	C31.6,42.1,37.7,36.9,37.7,29z"/>
<path class="st0" d="M25.9,9.6c-0.4-0.4-0.8-0.8-1.1-1.2c-0.4,0.4-0.8,0.7-1.2,1.2c-1-0.4-1.5-1.4-1.3-2.5C22.5,5.8,23.5,5,24.7,5
	c1.1,0,2.2,0.8,2.5,1.9C27.4,8.1,26.9,9.1,25.9,9.6z"/>
<path class="st0" d="M37.7,29c0,7.9-6.1,13.1-13,13.1c-7.2,0-13.1-5.9-13.1-13.1c0-7.3,5.8-13.2,13.2-13.2
	C31.6,15.8,37.7,21,37.7,29z M25.7,40.4c5.2,0,10.5-5.3,10.5-10.5c-0.5,0-1,0-1.5-0.1c-0.3-0.1-0.6-0.5-0.9-0.8
	c0.3-0.3,0.5-0.7,0.9-0.8c0.5-0.2,1-0.1,1.5-0.1c-0.2-5.5-5.8-10.9-10.5-10.5c-0.5,0.7,0.4,2.2-1,2.2c-1.4,0-0.5-1.5-1-2.2
	C19,17,12.7,23.3,13.4,28c0.5,0,1-0.1,1.4,0.1c0.3,0.1,0.6,0.5,0.9,0.8c-0.3,0.3-0.6,0.6-0.9,0.7c-0.4,0.1-0.9,0.1-1.4,0.1
	c-0.4,5,5.8,11.1,10.4,10.5c0.5-0.7-0.5-2.2,1-2.1C26.1,38.2,25.2,39.6,25.7,40.4z"/>
<path class="st0" d="M25.7,40.4c-0.5-0.8,0.4-2.2-0.9-2.2c-1.5-0.1-0.6,1.5-1,2.1c-4.6,0.7-10.8-5.5-10.4-10.5
	c0.4,0,0.9,0.1,1.4-0.1c0.3-0.1,0.6-0.5,0.9-0.7c-0.3-0.3-0.5-0.7-0.9-0.8c-0.4-0.2-0.9-0.1-1.4-0.1c-0.6-4.8,5.6-11,10.4-10.5
	c0.4,0.7-0.4,2.2,1,2.2c1.4,0,0.4-1.5,1-2.2c4.7-0.4,10.3,5,10.5,10.5c-0.5,0-1,0-1.5,0.1c-0.3,0.1-0.6,0.5-0.9,0.8
	c0.3,0.3,0.5,0.7,0.9,0.8c0.5,0.2,1,0.1,1.5,0.1C36.2,35.1,30.9,40.4,25.7,40.4z M31,23.5c-0.3-1-0.9-0.8-1.6-0.5
	c-2.3,0.9-4.6,1.8-6.9,2.8c-0.4,0.2-0.8,0.5-1,0.9c-1,2.3-1.9,4.7-2.9,7.1c-0.1,0.4-0.1,1,0.1,1.2c0.2,0.2,0.8,0.2,1.2,0.1
	c2.3-0.9,4.7-1.8,7-2.8c0.4-0.2,0.9-0.6,1-1c1-2.3,1.9-4.6,2.8-7C30.8,23.9,30.9,23.7,31,23.5z"/>
<path class="st0" d="M31,23.5c-0.1,0.2-0.2,0.5-0.2,0.7c-0.9,2.3-1.9,4.7-2.8,7c-0.2,0.4-0.6,0.8-1,1c-2.3,1-4.6,1.9-7,2.8
	c-0.3,0.1-1,0.2-1.2-0.1c-0.2-0.2-0.2-0.8-0.1-1.2c0.9-2.4,1.9-4.7,2.9-7.1c0.2-0.4,0.6-0.8,1-0.9c2.3-1,4.6-1.9,6.9-2.8
	C30.1,22.6,30.7,22.5,31,23.5z M20.7,33c1.8-0.7,3.3-1.3,4.8-1.9c-1-1-1.8-1.9-2.8-3C22,29.7,21.4,31.2,20.7,33z M26.8,29.8
	c0.7-1.7,1.3-3.2,2-5c-1.8,0.8-3.3,1.4-4.8,2C24.9,27.9,25.8,28.7,26.8,29.8z"/>
<path class="st0" d="M20.7,33c0.7-1.8,1.3-3.3,2-4.9c1,1,1.8,1.9,2.8,3C24,31.6,22.5,32.2,20.7,33z"/>
<path class="st0" d="M26.8,29.8c-1-1.1-1.9-1.9-2.9-3c1.5-0.6,3-1.2,4.8-2C28,26.7,27.5,28.1,26.8,29.8z"/>
</svg>
