<?xml version="1.0" encoding="utf-8"?>
<!-- Generator: Adobe Illustrator 25.4.1, SVG Export Plug-In . SVG Version: 6.00 Build 0)  -->
<svg version="1.1" id="Calque_1" xmlns="http://www.w3.org/2000/svg" xmlns:xlink="http://www.w3.org/1999/xlink" x="0px" y="0px"
	 viewBox="0 0 38.2 14.5" style="enable-background:new 0 0 38.2 14.5;" xml:space="preserve">
<style type="text/css">
	.st0{fill:#E74C3C;}
	.st1{fill:none;}
	.st2{fill:#FEFFFF;}
</style>
<rect class="st0" width="38.2" height="14.5"/>
<rect x="-6" y="-11.1" class="st1" width="50" height="50"/>
<g transform="translate(55.39299774169922,90.43999862670898)">
	<rect x="-53.2" y="-88.3" class="st2" width="33.7" height="0.7"/>
	<rect x="-53.2" y="-78.8" class="st2" width="33.7" height="0.7"/>
	<g transform="translate(0,10)">
		<g transform="translate(0.5770034790039062,0)">
			<g>
				<path class="st2" d="M-52-92.4h-1.8V-93l0.5-0.1v-3.1l-0.5-0.1v-0.5h1.8v0.5l-0.5,0.1v3.1L-52-93V-92.4z M-49.8-92.4h-1.8V-93
					l0.5-0.1v-3.1l-0.5-0.1v-0.5h0.5h0.9l1.9,3l0,0v-2.4l-0.5-0.1v-0.5h1.3h0.5v0.5l-0.5,0.1v3.7h-0.8l-1.9-2.9l0,0v2.3l0.5,0.1
					V-92.4z M-45-92.4h-1.9V-93l0.5-0.1v-3.1l-0.5-0.1v-0.5h0.5h1.4c0.4,0,0.7,0.1,1,0.3s0.5,0.4,0.7,0.7c0.2,0.3,0.2,0.7,0.2,1.1
					l0,0v0.1c0,0.4-0.1,0.8-0.2,1.1c-0.2,0.3-0.4,0.6-0.7,0.7C-44.3-92.5-44.6-92.4-45-92.4L-45-92.4z M-45.6-96.1v3h0.5
					c0.2,0,0.4-0.1,0.6-0.2c0.2-0.1,0.3-0.3,0.4-0.5c0.1-0.2,0.1-0.5,0.1-0.7l0,0v-0.1c0-0.3,0-0.5-0.1-0.7s-0.2-0.4-0.4-0.5
					c-0.2-0.1-0.4-0.2-0.6-0.2l0,0H-45.6z M-40.7-92.4L-40.7-92.4c-0.3,0-0.6-0.1-0.8-0.2c-0.2-0.1-0.4-0.3-0.6-0.5
					s-0.3-0.4-0.4-0.7c-0.1-0.3-0.1-0.6-0.1-0.9l0,0v-0.1c0-0.3,0-0.6,0.1-0.9c0.1-0.3,0.2-0.5,0.4-0.7c0.2-0.2,0.4-0.3,0.6-0.5
					c0.2-0.1,0.5-0.2,0.8-0.2l0,0c0.3,0,0.6,0.1,0.8,0.2c0.2,0.1,0.4,0.3,0.6,0.5c0.2,0.2,0.3,0.4,0.4,0.7c0.1,0.3,0.1,0.6,0.1,0.9
					l0,0v0.1c0,0.3,0,0.6-0.1,0.9c-0.1,0.3-0.2,0.5-0.4,0.7c-0.2,0.2-0.4,0.3-0.6,0.5C-40.1-92.4-40.4-92.4-40.7-92.4z M-40.7-93
					L-40.7-93c0.2,0,0.4-0.1,0.6-0.2c0.2-0.1,0.3-0.3,0.4-0.5c0.1-0.2,0.1-0.5,0.1-0.8l0,0v-0.1c0-0.3,0-0.6-0.1-0.8
					s-0.2-0.4-0.4-0.5c-0.2-0.1-0.4-0.2-0.6-0.2l0,0c-0.2,0-0.4,0.1-0.6,0.2c-0.2,0.1-0.3,0.3-0.4,0.5c-0.1,0.2-0.1,0.5-0.1,0.8l0,0
					v0.1c0,0.3,0,0.6,0.1,0.8c0.1,0.2,0.2,0.4,0.4,0.5C-41.1-93.1-40.9-93-40.7-93z M-36.6-92.4h-1.8V-93l0.5-0.1v-3.1l-0.5-0.1
					v-0.5h0.5h0.9l1.9,3l0,0v-2.4l-0.5-0.1v-0.5h1.3h0.5v0.5l-0.5,0.1v3.7h-0.8l-1.9-2.9l0,0v2.3l0.5,0.1V-92.4z M-30.3-92.4h-3.4
					V-93l0.5-0.1v-3.1l-0.5-0.1v-0.5h3.3v1.2H-31l0-0.5h-1.3v1.1h1.5v0.7h-1.5v1.2h1.4l0-0.5h0.7V-92.4z M-28.1-92.4L-28.1-92.4
					c-0.3,0-0.6,0-0.9-0.1c-0.3-0.1-0.5-0.2-0.8-0.4l0,0v-1h0.7l0.1,0.6c0.1,0.1,0.2,0.1,0.4,0.2c0.2,0,0.3,0.1,0.5,0.1l0,0
					c0.2,0,0.3,0,0.4-0.1c0.1,0,0.2-0.1,0.2-0.2c0.1-0.1,0.1-0.2,0.1-0.3l0,0c0-0.1,0-0.2-0.1-0.3c0-0.1-0.1-0.2-0.2-0.2
					c-0.1-0.1-0.3-0.1-0.5-0.2l0,0c-0.3-0.1-0.6-0.2-0.8-0.3c-0.2-0.1-0.4-0.3-0.5-0.4c-0.1-0.2-0.2-0.4-0.2-0.6l0,0
					c0-0.2,0.1-0.4,0.2-0.6c0.1-0.2,0.3-0.3,0.5-0.4c0.2-0.1,0.5-0.2,0.8-0.2l0,0c0.3,0,0.6,0,0.9,0.1c0.3,0.1,0.5,0.2,0.7,0.3l0,0
					v1h-0.6l-0.1-0.6c-0.1,0-0.2-0.1-0.3-0.1c-0.1,0-0.3-0.1-0.4-0.1l0,0c-0.1,0-0.3,0-0.4,0.1c-0.1,0-0.2,0.1-0.2,0.2
					c-0.1,0.1-0.1,0.2-0.1,0.3l0,0c0,0.1,0,0.2,0.1,0.3c0.1,0.1,0.1,0.1,0.3,0.2c0.1,0.1,0.3,0.1,0.5,0.2l0,0
					c0.5,0.1,0.8,0.3,1.1,0.5c0.2,0.2,0.4,0.5,0.4,0.9l0,0c0,0.2-0.1,0.5-0.2,0.6c-0.1,0.2-0.3,0.3-0.6,0.4
					C-27.5-92.4-27.8-92.4-28.1-92.4z M-24.4-92.4h-1.8V-93l0.5-0.1v-3.1l-0.5-0.1v-0.5h1.8v0.5l-0.5,0.1v3.1l0.5,0.1V-92.4z
					 M-22.9-92.4h-1.5V-93l0.3,0l1.4-3.7h0.9l1.4,3.7l0.3,0v0.5h-1.5V-93l0.3-0.1l-0.2-0.6H-23l-0.2,0.6l0.3,0.1V-92.4z M-22.3-95.7
					l-0.5,1.5h1.1l-0.5-1.5l0-0.1h0L-22.3-95.7z"/>
			</g>
		</g>
		<g transform="translate(0,36.96000099182129)">
			<g>
				<g>
					<rect x="-53.2" y="-128.3" class="st2" width="33.7" height="1.8"/>
				</g>
				<g transform="translate(25.147,2)">
					<g>
						<path class="st0" d="M-74.3-129.9v1h0.1v-1h0.3v-0.1h-0.8v0.1H-74.3z M-65.8-128.8c0.1,0,0.1,0,0.2,0c0.1,0,0.1-0.1,0.2-0.1
							c0-0.1,0.1-0.1,0.1-0.2c0-0.1,0-0.2,0-0.3c0-0.1,0-0.2,0-0.2c0-0.1-0.1-0.1-0.1-0.2s-0.1-0.1-0.2-0.1c-0.1,0-0.1,0-0.2,0
							c-0.1,0-0.1,0-0.2,0c-0.1,0-0.1,0.1-0.2,0.1c0,0.1-0.1,0.1-0.1,0.2c0,0.1,0,0.2,0,0.2c0,0.1,0,0.2,0,0.3
							c0,0.1,0.1,0.1,0.1,0.2c0,0.1,0.1,0.1,0.2,0.1C-66-128.8-65.9-128.8-65.8-128.8z M-65.8-128.9c-0.1,0-0.1,0-0.1,0
							c0,0-0.1-0.1-0.1-0.1c0,0-0.1-0.1-0.1-0.1c0-0.1,0-0.1,0-0.2c0-0.1,0-0.1,0-0.2c0-0.1,0-0.1,0.1-0.1c0,0,0.1-0.1,0.1-0.1
							c0,0,0.1,0,0.1,0s0.1,0,0.1,0c0,0,0.1,0.1,0.1,0.1c0,0,0.1,0.1,0.1,0.1c0,0.1,0,0.1,0,0.2c0,0.1,0,0.1,0,0.2
							c0,0.1,0,0.1-0.1,0.1c0,0-0.1,0.1-0.1,0.1C-65.7-129-65.8-128.9-65.8-128.9z M-57.7-130v0.7c0,0.1,0,0.2,0,0.2
							c0,0.1,0,0.1,0.1,0.2c0,0,0.1,0.1,0.1,0.1c0.1,0,0.1,0,0.2,0c0.1,0,0.1,0,0.2,0c0.1,0,0.1,0,0.1-0.1c0,0,0.1-0.1,0.1-0.2
							c0-0.1,0-0.1,0-0.2v-0.7H-57v0.7c0,0.1,0,0.1,0,0.2c0,0,0,0.1-0.1,0.1c0,0-0.1,0-0.1,0.1c0,0-0.1,0-0.1,0c0,0-0.1,0-0.1,0
							c0,0-0.1,0-0.1-0.1c0,0,0-0.1-0.1-0.1c0,0,0-0.1,0-0.2v-0.7H-57.7z M-49-129.4v-0.4h0.2c0.1,0,0.2,0,0.2,0
							c0,0,0.1,0.1,0.1,0.2c0,0.1,0,0.1-0.1,0.2c0,0-0.1,0.1-0.2,0.1H-49z M-48.5-128.8h0.2l-0.3-0.5c0.1,0,0.1-0.1,0.2-0.1
							c0-0.1,0.1-0.1,0.1-0.2c0-0.1,0-0.1,0-0.2c0,0,0-0.1-0.1-0.1s-0.1,0-0.1-0.1c0,0-0.1,0-0.2,0h-0.4v1.2h0.1v-0.5h0.2
							L-48.5-128.8z"/>
					</g>
				</g>
			</g>
		</g>
	</g>
</g>
</svg>
