<?xml version="1.0" encoding="utf-8"?>
<!-- Generator: Adobe Illustrator 25.4.1, SVG Export Plug-In . SVG Version: 6.00 Build 0)  -->
<svg version="1.1" id="Calque_1" xmlns="http://www.w3.org/2000/svg" xmlns:xlink="http://www.w3.org/1999/xlink" x="0px" y="0px"
	 viewBox="0 0 50 50" style="enable-background:new 0 0 50 50;" xml:space="preserve">
<style type="text/css">
	.st0{fill:none;stroke:#2394DB;stroke-miterlimit:10;}
</style>
<path class="st0" d="M8.3,24.7c0-8.6,7-15.6,15.6-15.5c8.7,0,15.7,6.9,15.6,15.6c0,8.9-7.1,15.5-15.7,15.6
	C15.2,40.4,8.3,33.4,8.3,24.7z M10.5,20.7c-1.9,4.8,0.1,11.4,4.6,15c4.9,3.9,11.8,4.1,17,0.4c4.5-3.2,6.8-9.2,5.5-14.1
	c-3.4-0.5-4.6-1.5-5.3-4.8c-0.2-1.1-0.5-2-1.4-2.6c-0.4-0.3-0.8-0.9-0.8-1.4c-0.2-1.3-1-1.6-2-1.9c-0.5-0.1-0.9-0.3-1.4-0.4
	c-2.5-0.5-4.9-0.4-7.3,0.5c0.1,0.6,0.2,1,0.3,1.5c0.4,0.1,0.7,0.1,1,0.1c1.1,0.3,1.4,1.2,0.6,2c-0.4,0.4-0.9,0.6-1.3,0.9
	c-0.4,0.3-0.9,0.5-1.1,0.9c-0.8,1.9-2.1,2.9-4.1,2.2c0.2,1,0.5,1.9,0.7,2.8c0.1,0.7-0.4,1.2-1.1,0.9C13.1,22.2,11.9,21.4,10.5,20.7z
	 M16.3,13c-0.1,0-0.3-0.1-0.4-0.1c-1.3,1.4-2.6,2.8-3.8,4.2c-0.7,0.9-0.3,2.6,0.6,2.8c0-2.2,0.7-2.8,2.9-2.4
	c0.4,0.1,1.1-0.2,1.4-0.6c0.6-0.7,1-1.5,1.5-2.3C17.7,14.3,16.4,14.7,16.3,13z M33.4,14.4c0.8,4.9,1.6,6.1,3.8,5.9
	C36.5,18,35.3,16.1,33.4,14.4z"/>
<path class="st0" d="M43.4,34.5c-0.9,0.8-1.9,1.3-1.3,2.6c0.1,0.2-0.2,0.7-0.4,0.8c-0.2,0.1-0.8-0.1-0.9-0.3
	c-0.5-0.9-1.1-1.6-2.1-1.9c-0.2,0-0.4-0.7-0.3-0.9c0.2-0.3,0.7-0.6,0.9-0.5c1.4,0.7,1.9-0.2,2.7-1.2c-0.7-0.2-1.3-0.4-1.8-0.7
	c-0.3-0.2-0.5-0.7-0.7-1.1c0.4-0.1,0.8-0.3,1.2-0.4c0.3,0,0.5,0.1,0.8,0.2c1.2,0.6,2.3,0.7,3.2-0.6c0.2-0.2,0.8-0.1,1.2-0.1
	c0,0.4,0.1,1-0.1,1.1c-1.5,1-1.1,2.3-0.5,3.6c0.1,0.3,0.3,0.6,0.2,0.8c-0.1,0.4-0.3,0.8-0.6,1c-0.2,0.1-0.7-0.2-0.9-0.5
	C43.8,36,43.7,35.3,43.4,34.5z"/>
<path class="st0" d="M22.3,5c-0.5,0.4-0.8,0.8-1.1,0.9c-1,0.3-2,0.5-3,0.7c-0.3,0-0.9-0.2-1-0.5c-0.1-0.2,0.2-0.9,0.4-1
	c1.1-0.4,2.3-0.6,3.5-0.8C21.4,4.3,21.8,4.7,22.3,5z"/>
<path class="st0" d="M11.9,39.7c0.3,0.1,0.5,0.2,0.6,0.3c0.9,0.5,1.8,1,2.6,1.7c0.3,0.2,0.3,0.7,0.4,1.1c-0.4,0.1-0.9,0.5-1.2,0.4
	c-1-0.5-1.9-1.1-2.8-1.7c-0.2-0.2-0.3-0.7-0.3-1C11.4,40,11.7,39.8,11.9,39.7z"/>
<path class="st0" d="M3.8,29.7C4,29.4,4.2,29,4.5,29c0.3,0,0.9,0.1,1,0.4c0.5,1.1,0.9,2.1,1.2,3.3c0.1,0.3-0.2,0.8-0.5,0.9
	c-0.3,0.1-0.9-0.1-1-0.3C4.7,32.1,4.3,31,3.8,29.7z"/>
<path class="st0" d="M7.2,14.8c-0.2-0.5-0.6-1.1-0.5-1.3c0.7-1.1,1.5-2,2.4-3c0.1-0.2,0.8-0.1,1,0.1c0.2,0.2,0.3,0.7,0.2,0.9
	c-0.7,1-1.5,1.9-2.3,2.9C7.8,14.5,7.7,14.6,7.2,14.8z"/>
<path class="st0" d="M34.8,7.6c-0.1,0.8-0.6,1-1.3,0.8c-1-0.4-1.9-0.8-2.8-1.4c-0.3-0.2-0.5-0.7-0.5-0.9c0.1-0.3,0.6-0.7,0.8-0.6
	c1.2,0.5,2.4,1.1,3.5,1.7C34.7,7.2,34.7,7.5,34.8,7.6z"/>
<path class="st0" d="M25.3,4.1c0.8,0.1,1.6,0.1,2.4,0.4c0.4,0.1,0.6,0.7,0.9,1c-0.4,0.2-0.7,0.6-1.1,0.6c-0.9,0-1.8-0.1-2.6-0.3
	c-0.4-0.1-0.8-0.6-1.2-0.8c0.4-0.3,0.8-0.6,1.2-0.8C25,4.1,25.2,4.1,25.3,4.1C25.3,4.1,25.3,4.1,25.3,4.1z"/>
<path class="st0" d="M12,9.9c-0.3-0.3-0.7-0.4-0.7-0.7c-0.1-0.3,0-0.8,0.2-1c1-0.7,2-1.3,3-1.9c0.2-0.1,0.7,0.1,0.9,0.3
	c0.2,0.2,0.2,0.8,0.1,0.9C14.4,8.3,13.2,9.1,12,9.9z"/>
<path class="st0" d="M3.8,19.7c0.5-1.3,0.8-2.4,1.3-3.4c0.1-0.2,0.8-0.5,1-0.4c0.3,0.2,0.6,0.7,0.5,1C6.3,18,6,19,5.5,20
	c-0.1,0.3-0.7,0.6-1,0.5C4.2,20.5,4,20,3.8,19.7z"/>
<path class="st0" d="M25.2,45.4c-0.3,0-0.6,0.1-0.8,0c-0.3-0.2-0.6-0.5-0.7-0.8c0-0.2,0.3-0.7,0.6-0.7c1.1-0.2,2.3-0.4,3.4-0.4
	c0.3,0,0.8,0.4,0.8,0.6c0,0.3-0.3,0.9-0.6,1C27.1,45.2,26.1,45.3,25.2,45.4C25.2,45.4,25.2,45.4,25.2,45.4z"/>
<path class="st0" d="M21,45.3c-1.2-0.3-2.3-0.5-3.2-0.9c-0.3-0.1-0.5-0.7-0.7-1.1c0.4-0.2,0.8-0.5,1.2-0.5c0.9,0.1,1.9,0.3,2.8,0.6
	c0.4,0.1,0.6,0.6,0.9,1C21.6,44.8,21.3,45,21,45.3z"/>
<path class="st0" d="M7.7,34.9c0.1,0.1,0.4,0.2,0.6,0.4c0.6,0.8,1.3,1.5,1.8,2.3c0.2,0.3,0,0.8,0,1.3c-0.4,0-1,0.1-1.2-0.2
	c-0.7-0.8-1.4-1.6-2-2.5C6.4,35.6,6.8,34.9,7.7,34.9z"/>
<path class="st0" d="M31.1,44.2c-0.4-0.3-0.8-0.5-0.9-0.8c0-0.3,0.2-0.8,0.5-1c0.9-0.5,1.8-0.9,2.7-1.3c0.3-0.1,0.8,0,1.2,0.1
	c-0.1,0.4,0,1.1-0.3,1.3C33.3,43.1,32.2,43.6,31.1,44.2z"/>
<path class="st0" d="M5,24.8c0,0.6,0.1,1.1,0,1.7c-0.1,0.3-0.5,0.7-0.7,0.7c-0.3,0-0.8-0.4-0.8-0.6c-0.1-1.2-0.1-2.4,0-3.6
	c0-0.3,0.6-0.7,0.8-0.7c0.3,0.1,0.7,0.5,0.8,0.8C5.1,23.6,5,24.2,5,24.8C5,24.8,5,24.8,5,24.8z"/>
<path class="st0" d="M39.3,10.7c-0.7,0.5-1.2,0.9-1.3,0.9c-0.7-0.5-1.4-1.2-2-1.8c0,0,0.6-0.9,0.7-0.9C37.4,9.3,38.2,9.9,39.3,10.7z
	"/>
<path class="st0" d="M36.7,40.9c-0.3-0.6-0.7-1-0.6-1.1c0.5-0.7,1.2-1.3,1.8-1.9c0.2,0.3,0.7,0.8,0.7,0.9
	C38,39.5,37.4,40.1,36.7,40.9z"/>
<path class="st0" d="M10.5,20.7c1.3,0.7,2.6,1.5,3.9,2c0.7,0.3,1.2-0.2,1.1-0.9c-0.1-0.9-0.4-1.8-0.7-2.8c2,0.7,3.3-0.3,4.1-2.2
	c0.2-0.4,0.7-0.6,1.1-0.9c0.4-0.3,0.9-0.5,1.3-0.9c0.8-0.8,0.5-1.7-0.6-2c-0.3-0.1-0.6-0.1-1-0.1c-0.1-0.5-0.2-0.9-0.3-1.5
	c2.4-0.9,4.8-0.9,7.3-0.5c0.5,0.1,0.9,0.2,1.4,0.4c1,0.3,1.8,0.6,2,1.9c0.1,0.5,0.4,1.1,0.8,1.4c0.9,0.7,1.2,1.6,1.4,2.6
	c0.7,3.3,1.8,4.3,5.3,4.8c1.3,4.9-0.9,10.9-5.5,14.1c-5.1,3.7-12,3.5-17-0.4C10.6,32.1,8.6,25.5,10.5,20.7z M19.7,34
	c0.1,0.3,0,1,0.3,1.4c0.5,0.6,1.1,1.1,1.7,1.6c0.4-0.6,0.9-1.1,1.2-1.8c0.2-0.4,0-1.1,0.3-1.4c1.2-0.9,2.3-1.9,3.4-2.9
	c0.8-0.8,1.6-1.3,1.5-2.4c0-0.3,0.1-0.6,0.2-0.8c1-1.7,0.4-3-1.6-3.2c-0.5-0.1-1.1-0.3-1.5-0.6c-1-0.7-1.9-1.5-2.9-2.1
	c-1.7-1.1-4-0.5-4.8,1.3c-1,2.2-1.2,4.9,1.7,6.3c0.4,0.2,0.7,0.9,0.7,1.3C20,31.7,19.8,32.7,19.7,34z"/>
<path class="st0" d="M16.3,13c0,1.6,1.4,1.3,2.3,1.6c-0.5,0.8-1,1.7-1.5,2.3c-0.3,0.3-0.9,0.7-1.4,0.6c-2.2-0.3-2.9,0.2-2.9,2.4
	c-0.9-0.3-1.3-1.9-0.6-2.8c1.2-1.5,2.5-2.8,3.8-4.2C16.1,12.9,16.2,13,16.3,13z"/>
<path class="st0" d="M33.4,14.4c1.9,1.8,3.1,3.6,3.8,5.9C35,20.4,34.2,19.3,33.4,14.4z"/>
<path class="st0" d="M19.7,34c0.1-1.2,0.3-2.2,0.3-3.2c0-0.5-0.3-1.1-0.7-1.3c-2.8-1.4-2.6-4.1-1.7-6.3c0.8-1.8,3.1-2.4,4.8-1.3
	c1,0.6,1.9,1.5,2.9,2.1c0.4,0.3,1,0.5,1.5,0.6c2,0.2,2.6,1.5,1.6,3.2c-0.1,0.2-0.2,0.5-0.2,0.8c0,1.2-0.7,1.7-1.5,2.4
	c-1.1,1-2.2,2-3.4,2.9c-0.3,0.2-0.1,1-0.3,1.4c-0.3,0.6-0.8,1.2-1.2,1.8c-0.6-0.5-1.3-1-1.7-1.6C19.7,34.9,19.8,34.3,19.7,34z
	 M21.3,33.4c0.9-0.6,1.7-1.2,2.5-1.9c0.2-0.2,0.6-0.4,0.7-0.6c0.3-0.9,0.7-1.5,1.7-1.6c0.2,0,0.4-0.3,0.4-0.5
	c0.2-0.8,0.3-1.6,0.5-2.6c-1.6,0.2-2.6-0.7-3.7-1.8c-0.5-0.5-1.2-0.8-1.8-1.2c-1.1-0.6-2.3-0.3-2.7,0.8c-0.7,2-0.6,3.3,1.2,4
	c1.2,0.5,1.6,1.5,1.5,2.7C21.5,31.7,21.4,32.6,21.3,33.4z"/>
<path class="st0" d="M21.3,33.4c0.1-0.8,0.1-1.7,0.2-2.6c0.1-1.3-0.3-2.2-1.5-2.7c-1.8-0.7-1.9-2-1.2-4c0.4-1.2,1.6-1.5,2.7-0.8
	c0.6,0.4,1.3,0.7,1.8,1.2c1.1,1,2.2,2,3.7,1.8c-0.2,1-0.3,1.8-0.5,2.6c0,0.2-0.2,0.5-0.4,0.5c-1,0.1-1.4,0.7-1.7,1.6
	c-0.1,0.2-0.4,0.4-0.7,0.6C23,32.1,22.2,32.7,21.3,33.4z"/>
</svg>
